<svg width="80" height="45" viewBox="0 0 257 170" fill="none" xmlns="http://www.w3.org/2000/svg">
<g filter="url(#filter0_d_9_22)">
<mask id="path-1-outside-1_9_22" maskUnits="userSpaceOnUse" x="53" y="75" width="85" height="87" fill="black">
<rect fill="white" x="53" y="75" width="85" height="87"/>
<path d="M55 97C55 85.9543 63.9543 77 75 77H110C121.046 77 130 85.9543 130 97V132C130 143.046 121.046 152 110 152H75C63.9543 152 55 143.046 55 132V97Z"/>
</mask>
<path d="M55 97C55 85.9543 63.9543 77 75 77H110C121.046 77 130 85.9543 130 97V132C130 143.046 121.046 152 110 152H75C63.9543 152 55 143.046 55 132V97Z" fill="white"/>
<path d="M53 97C53 84.8497 62.8497 75 75 75H116C128.15 75 138 84.8497 138 97H122C122 87.0589 116.627 79 110 79H75C65.0589 79 57 87.0589 57 97H53ZM138 134C138 149.464 125.464 162 110 162H75C62.8497 162 53 152.15 53 140L57 132C57 137.523 65.0589 142 75 142H110C116.627 142 122 137.523 122 132L138 134ZM75 162C62.8497 162 53 152.15 53 140V97C53 84.8497 62.8497 75 75 75V79C65.0589 79 57 87.0589 57 97V132C57 137.523 65.0589 142 75 142V162ZM116 75C128.15 75 138 84.8497 138 97V134C138 149.464 125.464 162 110 162V142C116.627 142 122 137.523 122 132V97C122 87.0589 116.627 79 110 79L116 75Z" fill="#272727" mask="url(#path-1-outside-1_9_22)"/>
<path d="M95.6406 96.875V131H89.2188V96.875H95.6406ZM106.234 96.875V101.961H78.7422V96.875H106.234Z" fill="#272727"/>
</g>
<g filter="url(#filter1_d_9_22)">
<mask id="path-4-outside-2_9_22" maskUnits="userSpaceOnUse" x="4" y="0" width="85" height="87" fill="black">
<rect fill="white" x="4" width="85" height="87"/>
<path d="M6 22C6 10.9543 14.9543 2 26 2H61C72.0457 2 81 10.9543 81 22V57C81 68.0457 72.0457 77 61 77H26C14.9543 77 6 68.0457 6 57V22Z"/>
</mask>
<path d="M6 22C6 10.9543 14.9543 2 26 2H61C72.0457 2 81 10.9543 81 22V57C81 68.0457 72.0457 77 61 77H26C14.9543 77 6 68.0457 6 57V22Z" fill="white"/>
<path d="M4 22C4 9.84974 13.8497 0 26 0H67C79.1503 0 89 9.84974 89 22H73C73 12.0589 67.6274 4 61 4H26C16.0589 4 8 12.0589 8 22H4ZM89 59C89 74.464 76.464 87 61 87H26C13.8497 87 4 77.1503 4 65L8 57C8 62.5228 16.0589 67 26 67H61C67.6274 67 73 62.5228 73 57L89 59ZM26 87C13.8497 87 4 77.1503 4 65V22C4 9.84974 13.8497 0 26 0V4C16.0589 4 8 12.0589 8 22V57C8 62.5228 16.0589 67 26 67V87ZM67 0C79.1503 0 89 9.84974 89 22V59C89 74.464 76.464 87 61 87V67C67.6274 67 73 62.5228 73 57V22C73 12.0589 67.6274 4 61 4L67 0Z" fill="#272727" mask="url(#path-4-outside-2_9_22)"/>
<path d="M40.0078 21.875V56H33.5625V21.875H40.0078ZM53.7656 36.6172V41.7031H38.3203V36.6172H53.7656ZM55.5703 21.875V26.9609H38.3203V21.875H55.5703Z" fill="#272727"/>
</g>
<path d="M108.953 59.6094V47.9141C108.953 47.0547 108.805 46.3125 108.508 45.6875C108.211 45.0625 107.758 44.5781 107.148 44.2344C106.539 43.8906 105.766 43.7188 104.828 43.7188C104 43.7188 103.273 43.8594 102.648 44.1406C102.039 44.4219 101.57 44.8203 101.242 45.3359C100.914 45.8359 100.75 46.4141 100.75 47.0703H94.5391C94.5391 46.0234 94.7891 45.0312 95.2891 44.0938C95.7891 43.1406 96.5 42.2969 97.4219 41.5625C98.3594 40.8125 99.4766 40.2266 100.773 39.8047C102.086 39.3828 103.555 39.1719 105.18 39.1719C107.102 39.1719 108.812 39.5 110.312 40.1562C111.828 40.7969 113.016 41.7656 113.875 43.0625C114.75 44.3594 115.188 45.9922 115.188 47.9609V59.0234C115.188 60.2891 115.266 61.375 115.422 62.2812C115.594 63.1719 115.844 63.9453 116.172 64.6016V65H109.867C109.57 64.3594 109.344 63.5469 109.188 62.5625C109.031 61.5625 108.953 60.5781 108.953 59.6094ZM109.82 49.5547L109.867 53.2344H105.953C104.984 53.2344 104.133 53.3359 103.398 53.5391C102.664 53.7266 102.062 54.0078 101.594 54.3828C101.125 54.7422 100.773 55.1797 100.539 55.6953C100.305 56.1953 100.188 56.7656 100.188 57.4062C100.188 58.0312 100.328 58.5938 100.609 59.0938C100.906 59.5938 101.328 59.9922 101.875 60.2891C102.438 60.5703 103.094 60.7109 103.844 60.7109C104.938 60.7109 105.891 60.4922 106.703 60.0547C107.516 59.6016 108.148 59.0547 108.602 58.4141C109.055 57.7734 109.297 57.1641 109.328 56.5859L111.109 59.2578C110.891 59.8984 110.562 60.5781 110.125 61.2969C109.688 62.0156 109.125 62.6875 108.438 63.3125C107.75 63.9375 106.922 64.4531 105.953 64.8594C104.984 65.2656 103.859 65.4688 102.578 65.4688C100.938 65.4688 99.4688 65.1406 98.1719 64.4844C96.875 63.8281 95.8516 62.9297 95.1016 61.7891C94.3516 60.6484 93.9766 59.3516 93.9766 57.8984C93.9766 56.5547 94.2266 55.3672 94.7266 54.3359C95.2266 53.3047 95.9688 52.4375 96.9531 51.7344C97.9375 51.0156 99.1562 50.4766 100.609 50.1172C102.078 49.7422 103.758 49.5547 105.648 49.5547H109.82ZM134.711 58.0625C134.711 57.5312 134.57 57.0547 134.289 56.6328C134.008 56.2109 133.477 55.8281 132.695 55.4844C131.93 55.125 130.805 54.7891 129.32 54.4766C128.008 54.1953 126.797 53.8438 125.688 53.4219C124.578 53 123.625 52.4922 122.828 51.8984C122.031 51.2891 121.406 50.5781 120.953 49.7656C120.516 48.9375 120.297 47.9844 120.297 46.9062C120.297 45.8594 120.523 44.875 120.977 43.9531C121.43 43.0156 122.086 42.1953 122.945 41.4922C123.805 40.7734 124.852 40.2109 126.086 39.8047C127.32 39.3828 128.711 39.1719 130.258 39.1719C132.414 39.1719 134.266 39.5234 135.812 40.2266C137.375 40.9297 138.57 41.8984 139.398 43.1328C140.227 44.3516 140.641 45.7266 140.641 47.2578H134.453C134.453 46.5859 134.297 45.9766 133.984 45.4297C133.688 44.8828 133.227 44.4453 132.602 44.1172C131.977 43.7734 131.188 43.6016 130.234 43.6016C129.375 43.6016 128.648 43.7422 128.055 44.0234C127.477 44.3047 127.039 44.6719 126.742 45.125C126.445 45.5781 126.297 46.0781 126.297 46.625C126.297 47.0312 126.375 47.3984 126.531 47.7266C126.703 48.0391 126.977 48.3281 127.352 48.5938C127.727 48.8594 128.234 49.1016 128.875 49.3203C129.531 49.5391 130.336 49.75 131.289 49.9531C133.18 50.3281 134.828 50.8281 136.234 51.4531C137.656 52.0625 138.766 52.875 139.562 53.8906C140.359 54.9062 140.758 56.2031 140.758 57.7812C140.758 58.9062 140.516 59.9375 140.031 60.875C139.547 61.7969 138.844 62.6016 137.922 63.2891C137 63.9766 135.898 64.5156 134.617 64.9062C133.336 65.2812 131.891 65.4688 130.281 65.4688C127.953 65.4688 125.984 65.0547 124.375 64.2266C122.766 63.3828 121.547 62.3203 120.719 61.0391C119.891 59.7422 119.477 58.3984 119.477 57.0078H125.406C125.453 57.9922 125.719 58.7812 126.203 59.375C126.688 59.9688 127.297 60.3984 128.031 60.6641C128.781 60.9141 129.57 61.0391 130.398 61.0391C131.336 61.0391 132.125 60.9141 132.766 60.6641C133.406 60.3984 133.891 60.0469 134.219 59.6094C134.547 59.1562 134.711 58.6406 134.711 58.0625ZM157.469 39.6406V44.0938H142.938V39.6406H157.469ZM146.828 33.4062H153.039V57.6875C153.039 58.4375 153.141 59.0156 153.344 59.4219C153.547 59.8281 153.852 60.1016 154.258 60.2422C154.664 60.3828 155.148 60.4531 155.711 60.4531C156.117 60.4531 156.492 60.4297 156.836 60.3828C157.18 60.3359 157.469 60.2891 157.703 60.2422L157.727 64.8828C157.211 65.0547 156.625 65.1953 155.969 65.3047C155.328 65.4141 154.602 65.4688 153.789 65.4688C152.398 65.4688 151.18 65.2344 150.133 64.7656C149.086 64.2812 148.273 63.5078 147.695 62.4453C147.117 61.3672 146.828 59.9453 146.828 58.1797V33.4062Z" fill="white"/>
<path d="M149.484 128.188L156.281 105.641H162.914L152.742 134.844C152.508 135.469 152.203 136.148 151.828 136.883C151.469 137.617 150.984 138.312 150.375 138.969C149.766 139.641 149 140.188 148.078 140.609C147.172 141.031 146.07 141.242 144.773 141.242C144.211 141.242 143.711 141.203 143.273 141.125C142.836 141.047 142.375 140.945 141.891 140.82V136.18C142.047 136.195 142.227 136.203 142.43 136.203C142.648 136.219 142.836 136.227 142.992 136.227C143.898 136.227 144.648 136.117 145.242 135.898C145.836 135.695 146.312 135.359 146.672 134.891C147.047 134.438 147.359 133.844 147.609 133.109L149.484 128.188ZM146.133 105.641L151.875 124.32L152.883 130.859L148.617 131.633L139.453 105.641H146.133ZM172.102 110.516V140.75H165.891V105.641H171.633L172.102 110.516ZM188.391 118.062V118.555C188.391 120.398 188.172 122.109 187.734 123.688C187.312 125.25 186.688 126.617 185.859 127.789C185.031 128.945 184 129.852 182.766 130.508C181.547 131.148 180.141 131.469 178.547 131.469C176.984 131.469 175.625 131.172 174.469 130.578C173.312 129.969 172.336 129.109 171.539 128C170.742 126.891 170.102 125.602 169.617 124.133C169.148 122.648 168.797 121.031 168.562 119.281V117.711C168.797 115.852 169.148 114.164 169.617 112.648C170.102 111.117 170.742 109.797 171.539 108.688C172.336 107.562 173.305 106.695 174.445 106.086C175.602 105.477 176.953 105.172 178.5 105.172C180.109 105.172 181.523 105.477 182.742 106.086C183.977 106.695 185.016 107.57 185.859 108.711C186.703 109.852 187.336 111.211 187.758 112.789C188.18 114.367 188.391 116.125 188.391 118.062ZM182.18 118.555V118.062C182.18 116.938 182.078 115.898 181.875 114.945C181.672 113.977 181.359 113.133 180.938 112.414C180.516 111.68 179.969 111.109 179.297 110.703C178.625 110.297 177.812 110.094 176.859 110.094C175.906 110.094 175.086 110.25 174.398 110.562C173.711 110.875 173.148 111.32 172.711 111.898C172.273 112.477 171.93 113.164 171.68 113.961C171.445 114.742 171.289 115.609 171.211 116.562V120.453C171.352 121.609 171.625 122.648 172.031 123.57C172.438 124.492 173.031 125.227 173.812 125.773C174.609 126.32 175.641 126.594 176.906 126.594C177.859 126.594 178.672 126.383 179.344 125.961C180.016 125.539 180.562 124.961 180.984 124.227C181.406 123.477 181.711 122.617 181.898 121.648C182.086 120.68 182.18 119.648 182.18 118.555ZM199.477 105.641V131H193.266V105.641H199.477ZM192.844 99.0078C192.844 98.0859 193.156 97.3203 193.781 96.7109C194.422 96.1016 195.281 95.7969 196.359 95.7969C197.438 95.7969 198.289 96.1016 198.914 96.7109C199.555 97.3203 199.875 98.0859 199.875 99.0078C199.875 99.9141 199.555 100.672 198.914 101.281C198.289 101.891 197.438 102.195 196.359 102.195C195.281 102.195 194.422 101.891 193.781 101.281C193.156 100.672 192.844 99.9141 192.844 99.0078ZM211.453 111.055V131H205.266V105.641H211.078L211.453 111.055ZM210.469 117.406H208.641C208.656 115.562 208.906 113.891 209.391 112.391C209.875 110.891 210.555 109.602 211.43 108.523C212.32 107.445 213.375 106.617 214.594 106.039C215.812 105.461 217.172 105.172 218.672 105.172C219.891 105.172 220.992 105.344 221.977 105.688C222.961 106.031 223.805 106.578 224.508 107.328C225.227 108.078 225.773 109.062 226.148 110.281C226.539 111.484 226.734 112.969 226.734 114.734V131H220.5V114.688C220.5 113.531 220.328 112.617 219.984 111.945C219.656 111.273 219.172 110.797 218.531 110.516C217.906 110.234 217.133 110.094 216.211 110.094C215.258 110.094 214.422 110.289 213.703 110.68C213 111.055 212.406 111.578 211.922 112.25C211.453 112.922 211.094 113.695 210.844 114.57C210.594 115.445 210.469 116.391 210.469 117.406ZM248.32 105.641H253.945V130.227C253.945 132.523 253.445 134.469 252.445 136.062C251.461 137.672 250.078 138.891 248.297 139.719C246.516 140.562 244.445 140.984 242.086 140.984C241.07 140.984 239.969 140.844 238.781 140.562C237.609 140.281 236.477 139.836 235.383 139.227C234.305 138.633 233.406 137.859 232.688 136.906L235.477 133.25C236.32 134.234 237.273 134.977 238.336 135.477C239.398 135.992 240.547 136.25 241.781 136.25C243.031 136.25 244.094 136.016 244.969 135.547C245.859 135.094 246.539 134.422 247.008 133.531C247.492 132.656 247.734 131.578 247.734 130.297V111.43L248.32 105.641ZM231.188 118.625V118.133C231.188 116.195 231.422 114.438 231.891 112.859C232.359 111.266 233.031 109.898 233.906 108.758C234.797 107.617 235.867 106.734 237.117 106.109C238.383 105.484 239.805 105.172 241.383 105.172C243.055 105.172 244.461 105.477 245.602 106.086C246.758 106.695 247.711 107.562 248.461 108.688C249.227 109.812 249.82 111.148 250.242 112.695C250.68 114.227 251.016 115.914 251.25 117.758V119.094C251.031 120.891 250.68 122.539 250.195 124.039C249.727 125.539 249.102 126.852 248.32 127.977C247.539 129.086 246.57 129.945 245.414 130.555C244.258 131.164 242.898 131.469 241.336 131.469C239.773 131.469 238.367 131.148 237.117 130.508C235.867 129.867 234.797 128.969 233.906 127.812C233.031 126.656 232.359 125.297 231.891 123.734C231.422 122.172 231.188 120.469 231.188 118.625ZM237.375 118.133V118.625C237.375 119.719 237.484 120.742 237.703 121.695C237.922 122.648 238.258 123.492 238.711 124.227C239.164 124.945 239.734 125.508 240.422 125.914C241.109 126.32 241.93 126.523 242.883 126.523C244.164 126.523 245.211 126.258 246.023 125.727C246.852 125.18 247.477 124.438 247.898 123.5C248.336 122.547 248.617 121.477 248.742 120.289V116.609C248.664 115.672 248.492 114.805 248.227 114.008C247.977 113.211 247.625 112.523 247.172 111.945C246.719 111.367 246.141 110.914 245.438 110.586C244.734 110.258 243.898 110.094 242.93 110.094C241.992 110.094 241.172 110.305 240.469 110.727C239.766 111.133 239.188 111.703 238.734 112.438C238.281 113.172 237.938 114.023 237.703 114.992C237.484 115.961 237.375 117.008 237.375 118.133Z" fill="white"/>
<defs>
<filter id="filter0_d_9_22" x="49" y="75" width="93" height="95" filterUnits="userSpaceOnUse" color-interpolation-filters="sRGB">
<feFlood flood-opacity="0" result="BackgroundImageFix"/>
<feColorMatrix in="SourceAlpha" type="matrix" values="0 0 0 0 0 0 0 0 0 0 0 0 0 0 0 0 0 0 127 0" result="hardAlpha"/>
<feOffset dy="4"/>
<feGaussianBlur stdDeviation="2"/>
<feComposite in2="hardAlpha" operator="out"/>
<feColorMatrix type="matrix" values="0 0 0 0 0 0 0 0 0 0 0 0 0 0 0 0 0 0 0.25 0"/>
<feBlend mode="normal" in2="BackgroundImageFix" result="effect1_dropShadow_9_22"/>
<feBlend mode="normal" in="SourceGraphic" in2="effect1_dropShadow_9_22" result="shape"/>
</filter>
<filter id="filter1_d_9_22" x="0" y="0" width="93" height="95" filterUnits="userSpaceOnUse" color-interpolation-filters="sRGB">
<feFlood flood-opacity="0" result="BackgroundImageFix"/>
<feColorMatrix in="SourceAlpha" type="matrix" values="0 0 0 0 0 0 0 0 0 0 0 0 0 0 0 0 0 0 127 0" result="hardAlpha"/>
<feOffset dy="4"/>
<feGaussianBlur stdDeviation="2"/>
<feComposite in2="hardAlpha" operator="out"/>
<feColorMatrix type="matrix" values="0 0 0 0 0 0 0 0 0 0 0 0 0 0 0 0 0 0 0.25 0"/>
<feBlend mode="normal" in2="BackgroundImageFix" result="effect1_dropShadow_9_22"/>
<feBlend mode="normal" in="SourceGraphic" in2="effect1_dropShadow_9_22" result="shape"/>
</filter>
</defs>
</svg>
